<?xml version="1.0" encoding="UTF-8" standalone="no"?>
<!-- Created with Inkscape (http://www.inkscape.org/) -->

<svg
   width="144.67702mm"
   height="29.240322mm"
   viewBox="0 0 144.67702 29.240322"
   version="1.1"
   id="svg5"
   xml:space="preserve"
   xmlns="http://www.w3.org/2000/svg"
   xmlns:svg="http://www.w3.org/2000/svg"><defs
     id="defs2" /><g
     id="layer1"
     transform="translate(-47.240266,-37.553698)"><g
       id="g2410"><path
         fill="#ea580c"
         d="m 55.396154,39.331976 2.40801,3.841631 -1.141769,-4.554848 z m -3.456215,1.957873 4.789864,8.359481 -7.053244,1.943018 7.493392,3.716474 -3.314171,1.62435 6.445167,1.632986 -3.166643,-1.77029 2.882289,-1.248992 -4.130323,-2.823609 5.622969,0.578298 -4.264891,-6.274701 1.33e-4,6.6e-5 6.224766,4.484059 0.890325,-4.7151 2.938972,5.585855 1.352463,-2.634511 0.897487,3.21793 -0.198168,-6.577101 -2.703705,1.613748 -1.142719,-7.778073 -3.245821,5.251587 -3.315188,-4.676349 0.52164,6.280087 -7.52447,-5.789241 -1.08e-4,6.1e-5 z m -4.699618,3.984944 0.432568,1.248104 7.073853,2.670284 7.1e-5,-4e-5 -6.234287,-4.30378 -1.27226,0.385418 z m 15.768544,-7.721094 -0.981506,0.884025 0.627011,4.676481 1.231428,-4.562456 -0.876962,-0.99803 z m 0.06822,15.6421 c -1.4518,0.817734 -1.958419,2.627253 -1.132466,4.043896 0.117704,0.201885 0.243095,0.364589 0.398174,0.527574 -0.407136,-1.295218 0.139581,-2.732568 1.394331,-3.439311 1.258256,-0.708719 2.793709,-0.450722 3.723994,0.556437 -0.06447,-0.210879 -0.145678,-0.40531 -0.26176,-0.604409 -0.825995,-1.416714 -2.670633,-1.901783 -4.12236,-1.084092 z"
         id="path1899"
         style="stroke-width:0.0411431" /><path
         fill="#00a6ed"
         fill-rule="evenodd"
         d="m 186.62736,46.679999 c -0.34515,0.470589 -0.45077,1.04367 -0.33916,1.571153 l -1.07113,1.460414 -1.85063,-1.357323 c -0.43886,-0.321879 -1.05295,-0.227442 -1.37483,0.211422 -0.32188,0.438865 -0.22745,1.052957 0.21141,1.374836 l 1.85063,1.357324 -5.34243,7.284096 a 5.91463,5.91463 0 0 1 -1.35207,-4.875431 l 0.0211,0.0155 c 0.46001,0.337393 1.10409,-0.01966 1.05865,-0.589691 l -0.25676,-3.408531 c -0.0415,-0.575312 -0.74199,-0.828822 -1.14283,-0.41534 l -1.83711,1.872807 c -0.28414,0.287645 -0.24364,0.764601 0.0842,1.005043 l 0.35426,0.259827 c -0.94002,3.099994 0.11236,6.58789 2.87774,8.616124 2.76537,2.028228 6.40831,1.984062 9.08265,0.15608 l 0.35426,0.259828 c 0.32783,0.240441 0.79493,0.135777 0.9839,-0.221668 l 1.23433,-2.314909 c 0.27393,-0.50656 -0.1783,-1.098459 -0.73952,-0.96525 l -3.32819,0.779197 c -0.55734,0.127928 -0.70441,0.849507 -0.24438,1.186911 l 0.0211,0.0155 a 5.91463,5.91463 0 0 1 -5.05641,0.17521 l 5.34244,-7.284097 1.85064,1.357329 c 0.43886,0.321879 1.05295,0.227443 1.37483,-0.211422 0.32188,-0.438864 0.22745,-1.052957 -0.21141,-1.374836 l -1.85063,-1.357324 1.07112,-1.460414 c 0.53809,-0.05178 1.05113,-0.324425 1.39666,-0.795543 0.64376,-0.87773 0.4549,-2.10592 -0.42283,-2.749679 -0.87773,-0.643759 -2.10592,-0.454893 -2.74968,0.422837 m 1.05751,0.775616 c 0.21329,-0.290815 0.62574,-0.354244 0.91655,-0.140949 0.29082,0.213295 0.35424,0.625744 0.14094,0.916559 -0.21329,0.290814 -0.62574,0.354243 -0.91655,0.140947 -0.29082,-0.213295 -0.35424,-0.625743 -0.14094,-0.916557"
         clip-rule="evenodd"
         id="path2096"
         style="fill:#24d0fc;fill-opacity:1;stroke-width:0.655722" /><text
         xml:space="preserve"
         style="font-style:normal;font-variant:normal;font-weight:normal;font-stretch:normal;font-size:16.9333px;font-family:sans-serif;-inkscape-font-specification:sans-serif;font-variant-ligatures:normal;font-variant-caps:normal;font-variant-numeric:normal;font-variant-east-asian:normal;fill:#0a3d62;fill-opacity:1;stroke:none;stroke-width:0.414913"
         x="60.536381"
         y="63.80051"
         id="text275"
         transform="scale(0.99071033,1.0093768)"><tspan
           id="tspan273"
           style="font-style:normal;font-variant:normal;font-weight:bold;font-stretch:normal;font-size:16.9333px;font-family:sans-serif;-inkscape-font-specification:'sans-serif, Bold';font-variant-ligatures:normal;font-variant-caps:normal;font-variant-numeric:normal;font-variant-east-asian:normal;fill:#0a3d62;fill-opacity:1;stroke:none;stroke-width:0.414913"
           x="60.536381"
           y="63.80051">BATALLA NAVAL</tspan></text><path
         fill="#e74c3c"
         d="m 128.90629,51.959405 a 6.1858111,6.1858111 0 0 0 -7.07243,2.196177 l 1.5083,0.793522 -0.8223,1.563003 -1.50829,-0.793521 a 6.1813958,6.1813958 0 0 0 2.19617,7.072423 l 0.79352,-1.508296 1.563,0.822301 -0.79352,1.508296 a 6.1813958,6.1813958 0 0 0 7.07243,-2.196178 l -1.5083,-0.793518 0.8223,-1.563004 1.5083,0.793522 a 6.1813958,6.1813958 0 0 0 -2.19618,-7.072426 l -0.79352,1.508296 -1.563,-0.822301 z m -8.64715,1.367708 a 7.9510409,7.9510409 0 0 1 9.47562,-2.942434 l 0.84491,-1.605984 1.56301,0.822301 -0.84492,1.605985 a 7.9510409,7.9510409 0 0 1 2.94243,9.475617 l 1.60598,0.844916 -0.8223,1.563002 -1.60598,-0.844914 a 7.9510409,7.9510409 0 0 1 -9.47562,2.942433 l -0.84491,1.605985 -1.563,-0.822302 0.84491,-1.605984 a 7.9510409,7.9510409 0 0 1 -2.94243,-9.475618 l -1.60599,-0.844916 0.82231,-1.563001 z m 8.14238,5.281544 a 1.7661147,1.7661147 0 1 1 -3.12601,-1.644599 1.7661147,1.7661147 0 0 1 3.12601,1.644599"
         id="path2396"
         style="stroke-width:0.883055" /></g></g></svg>
